<svg height="1454" width="720" xmlns="http://www.w3.org/2000/svg">
<rect height="1454" fill="#555" width="720"></rect>
<text fill="#7f7" font-family="Courier New" font-size="12" xml:space="preserve">
<tspan x="10" y="26">15 megabytes installed</tspan>
<tspan x="10" y="42"></tspan>
<tspan x="10" y="58">node_modules</tspan>
<tspan x="10" y="74">└─┬ express-admin@1.3.0 </tspan>
<tspan x="10" y="90">  ├── async@0.9.0 </tspan>
<tspan x="10" y="106">  ├─┬ body-parser@1.4.3 </tspan>
<tspan x="10" y="122">  │ ├── bytes@1.0.0 </tspan>
<tspan x="10" y="138">  │ ├── depd@0.3.0 </tspan>
<tspan x="10" y="154">  │ ├── iconv-lite@0.4.3 </tspan>
<tspan x="10" y="170">  │ ├── media-typer@0.2.0 </tspan>
<tspan x="10" y="186">  │ ├── qs@0.6.6 </tspan>
<tspan x="10" y="202">  │ ├── raw-body@1.2.2 </tspan>
<tspan x="10" y="218">  │ └─┬ type-is@1.3.1 </tspan>
<tspan x="10" y="234">  │   └── mime-types@1.0.0 </tspan>
<tspan x="10" y="250">  ├── colors@0.6.1 </tspan>
<tspan x="10" y="266">  ├─┬ commander@1.3.2 </tspan>
<tspan x="10" y="282">  │ └── keypress@0.1.0 </tspan>
<tspan x="10" y="298">  ├─┬ connect-multiparty@1.1.0 </tspan>
<tspan x="10" y="314">  │ ├─┬ multiparty@3.3.2 </tspan>
<tspan x="10" y="330">  │ │ └── stream-counter@0.2.0 </tspan>
<tspan x="10" y="346">  │ └─┬ type-is@1.3.2 </tspan>
<tspan x="10" y="362">  │   └── mime-types@1.0.2 </tspan>
<tspan x="10" y="378">  ├── consolidate@0.9.1 </tspan>
<tspan x="10" y="394">  ├─┬ cookie-parser@1.3.1 </tspan>
<tspan x="10" y="410">  │ ├── cookie@0.1.2 </tspan>
<tspan x="10" y="426">  │ └── cookie-signature@1.0.3 </tspan>
<tspan x="10" y="442">  ├─┬ csurf@1.2.2 </tspan>
<tspan x="10" y="458">  │ └─┬ csrf-tokens@2.0.0 </tspan>
<tspan x="10" y="474">  │   ├── base64-url@1.3.3 </tspan>
<tspan x="10" y="490">  │   ├── rndm@1.2.0 </tspan>
<tspan x="10" y="506">  │   ├── scmp@0.0.3 </tspan>
<tspan x="10" y="522">  │   └─┬ uid-safe@1.1.0 </tspan>
<tspan x="10" y="538">  │     ├── base64-url@1.2.1 </tspan>
<tspan x="10" y="554">  │     └── native-or-bluebird@1.1.2 </tspan>
<tspan x="10" y="570">  ├── deep-copy@1.0.0 </tspan>
<tspan x="10" y="586">  ├─┬ express@4.4.4 </tspan>
<tspan x="10" y="602">  │ ├─┬ accepts@1.0.7 </tspan>
<tspan x="10" y="618">  │ │ └── negotiator@0.4.7 </tspan>
<tspan x="10" y="634">  │ ├── buffer-crc32@0.2.3 </tspan>
<tspan x="10" y="650">  │ ├─┬ debug@1.0.2 </tspan>
<tspan x="10" y="666">  │ │ └── ms@0.6.2 </tspan>
<tspan x="10" y="682">  │ ├── escape-html@1.0.1 </tspan>
<tspan x="10" y="698">  │ ├── fresh@0.2.2 </tspan>
<tspan x="10" y="714">  │ ├── merge-descriptors@0.0.2 </tspan>
<tspan x="10" y="730">  │ ├── methods@1.0.1 </tspan>
<tspan x="10" y="746">  │ ├── parseurl@1.0.1 </tspan>
<tspan x="10" y="762">  │ ├── path-to-regexp@0.1.2 </tspan>
<tspan x="10" y="778">  │ ├─┬ proxy-addr@1.0.1 </tspan>
<tspan x="10" y="794">  │ │ └── ipaddr.js@0.1.2 </tspan>
<tspan x="10" y="810">  │ ├── range-parser@1.0.0 </tspan>
<tspan x="10" y="826">  │ ├─┬ send@0.4.3 </tspan>
<tspan x="10" y="842">  │ │ ├─┬ finished@1.2.2 </tspan>
<tspan x="10" y="858">  │ │ │ └── ee-first@1.0.3 </tspan>
<tspan x="10" y="874">  │ │ └── mime@1.2.11 </tspan>
<tspan x="10" y="890">  │ ├── type-is@1.2.1 </tspan>
<tspan x="10" y="906">  │ ├── utils-merge@1.0.0 </tspan>
<tspan x="10" y="922">  │ └── vary@0.1.0 </tspan>
<tspan x="10" y="938">  ├── express-admin-static@2.2.2 </tspan>
<tspan x="10" y="954">  ├─┬ express-session@1.5.1 </tspan>
<tspan x="10" y="970">  │ ├── on-headers@0.0.0 </tspan>
<tspan x="10" y="986">  │ └─┬ uid-safe@1.0.1 </tspan>
<tspan x="10" y="1002">  │   └─┬ mz@1.3.0 </tspan>
<tspan x="10" y="1018">  │     ├─┬ thenify@3.2.1 </tspan>
<tspan x="10" y="1034">  │     │ └── any-promise@1.3.0 </tspan>
<tspan x="10" y="1050">  │     └── thenify-all@1.6.0 </tspan>
<tspan x="10" y="1066">  ├─┬ hogan.js@3.0.2 </tspan>
<tspan x="10" y="1082">  │ ├── mkdirp@0.3.0 </tspan>
<tspan x="10" y="1098">  │ └─┬ nopt@1.0.10 </tspan>
<tspan x="10" y="1114">  │   └── abbrev@1.1.0 </tspan>
<tspan x="10" y="1130">  ├── method-override@2.0.2 </tspan>
<tspan x="10" y="1146">  ├── moment@2.8.3 </tspan>
<tspan x="10" y="1162">  ├── morgan@1.1.1 </tspan>
<tspan x="10" y="1178">  ├─┬ mysql@2.2.0 </tspan>
<tspan x="10" y="1194">  │ ├── bignumber.js@1.3.0 </tspan>
<tspan x="10" y="1210">  │ ├─┬ readable-stream@1.1.14 </tspan>
<tspan x="10" y="1226">  │ │ ├── core-util-is@1.0.2 </tspan>
<tspan x="10" y="1242">  │ │ ├── inherits@2.0.3 </tspan>
<tspan x="10" y="1258">  │ │ ├── isarray@0.0.1 </tspan>
<tspan x="10" y="1274">  │ │ └── string_decoder@0.10.31 </tspan>
<tspan x="10" y="1290">  │ └── require-all@0.0.8 </tspan>
<tspan x="10" y="1306">  ├─┬ mysql-validator@0.1.6 </tspan>
<tspan x="10" y="1322">  │ └── big-integer@1.6.21 </tspan>
<tspan x="10" y="1338">  ├── pwd@0.0.3 </tspan>
<tspan x="10" y="1354">  ├── serve-static@1.2.3 </tspan>
<tspan x="10" y="1370">  ├── slugify@0.1.0 </tspan>
<tspan x="10" y="1386">  ├── sr-pagination@1.0.1 </tspan>
<tspan x="10" y="1402">  └─┬ xsql@1.0.1 </tspan>
<tspan x="10" y="1418">    └─┬ type-check@0.3.1 </tspan>
<tspan x="10" y="1434">      └── prelude-ls@1.1.2</tspan>
</text>
</svg>
